<svg xmlns="http://www.w3.org/2000/svg" width="86" height="86.834" viewBox="0 0 86 86.834">
  <g id="Сгруппировать_213" data-name="Сгруппировать 213" transform="translate(-238 -52)">
    <circle id="Эллипс_210" data-name="Эллипс 210" cx="43" cy="43" r="43" transform="translate(238 52)" fill="#5a8ed5"/>
    <g id="Объединение_18" data-name="Объединение 18" transform="translate(242.064 99.771) rotate(-45)" fill="#f2f2f2">
      <path d="M 27.62280082702637 49.24469757080078 C 15.69994735717773 49.24469757080078 6.000000953674316 39.54515075683594 6.000000953674316 27.62280464172363 C 6.000000953674316 15.69995021820068 15.69994735717773 6.000003814697266 27.62280082702637 6.000003814697266 C 28.18325424194336 6.000003814697266 28.73836135864258 6.021177291870117 29.28813362121582 6.062897205352783 L 49.11240005493164 6.076101303100586 L 49.11240005493164 24.89291000366211 C 49.21020126342773 26.18368339538574 49.24560165405273 26.89944458007813 49.24560165405273 27.62280464172363 C 49.24560165405273 39.54515075683594 39.545654296875 49.24469757080078 27.62280082702637 49.24469757080078 Z" stroke="none"/>
      <path d="M 27.62280082702637 43.24470901489258 C 36.23723983764648 43.24470901489258 43.24560165405273 36.23675155639648 43.24560165405273 27.62281036376953 C 43.24560165405273 27.09699058532715 43.2199592590332 26.57669067382813 43.16968154907227 26.06409072875977 L 43.11240005493164 25.47989082336426 L 43.11240005493164 24.89291000366211 L 43.11240005493164 12.06439113616943 L 28.83436012268066 12.04571056365967 L 27.62280082702637 12.00001049041748 C 19.00835990905762 12.00001049041748 12.00000095367432 19.00837135314941 12.00000095367432 27.62281036376953 C 12.00000095367432 36.23675155639648 19.00835990905762 43.24470901489258 27.62280082702637 43.24470901489258 M 27.62280082702637 55.24470901489258 C 12.36690044403076 55.24470901489258 8.270263833765057e-07 42.87781143188477 8.270263833765057e-07 27.62281036376953 C 8.270263833765057e-07 12.36691093444824 12.36690044403076 1.069274912879337e-05 27.62280082702637 1.069274912879337e-05 C 28.33606147766113 1.069274912879337e-05 29.04248046875 0.02701069228351116 29.74214172363281 0.08009069412946701 L 55.11240005493164 0.08009069412946701 L 55.11240005493164 24.89291000366211 C 55.200439453125 25.79067039489746 55.24560165405273 26.70189094543457 55.24560165405273 27.62281036376953 C 55.24560165405273 42.87781143188477 42.87870025634766 55.24470901489258 27.62280082702637 55.24470901489258 Z" stroke="none" fill="#3364a8"/>
    </g>
  </g>
</svg>
